<svg xmlns="http://www.w3.org/2000/svg" width="18" height="18" viewBox="0 0 18 18">
  <g id="그룹_359" data-name="그룹 359" transform="translate(-906.677 -602)">
    <circle id="타원_32" data-name="타원 32" cx="9" cy="9" r="9" transform="translate(906.677 602)" fill="#23d2e2"/>
    <path id="Icon_awesome-eye-slash" data-name="Icon awesome-eye-slash" d="M6.25,7.812a2.8,2.8,0,0,1-2.791-2.6L1.41,3.629A6.509,6.509,0,0,0,.693,4.715a.632.632,0,0,0,0,.57A6.264,6.264,0,0,0,6.25,8.749a6.066,6.066,0,0,0,1.521-.2L6.757,7.761a2.815,2.815,0,0,1-.508.051Zm6.129,1.135L10.22,7.278a6.469,6.469,0,0,0,1.587-1.993.632.632,0,0,0,0-.57A6.264,6.264,0,0,0,6.25,1.25a6.018,6.018,0,0,0-2.877.736L.888.066A.312.312,0,0,0,.449.121L.066.614a.312.312,0,0,0,.055.438L11.611,9.933a.312.312,0,0,0,.439-.055l.384-.494a.312.312,0,0,0-.055-.438ZM8.791,6.173,8.023,5.58A1.851,1.851,0,0,0,5.755,3.2a.931.931,0,0,1,.182.551.911.911,0,0,1-.03.2L4.47,2.834a2.779,2.779,0,0,1,1.78-.647A2.811,2.811,0,0,1,9.062,5a2.746,2.746,0,0,1-.271,1.174Z" transform="translate(909.928 606.001)" fill="#fff"/>
  </g>
</svg>
