<svg xmlns="http://www.w3.org/2000/svg" width="18" height="18" viewBox="0 0 18 18">
  <g id="그룹_357" data-name="그룹 357" transform="translate(-864 -602)">
    <g id="그룹_355" data-name="그룹 355">
      <g id="그룹_356" data-name="그룹 356">
        <circle id="타원_31" data-name="타원 31" cx="9" cy="9" r="9" transform="translate(864 602)" fill="#f8468d"/>
      </g>
    </g>
    <g id="Icon_feather-trash-2" data-name="Icon feather-trash-2" transform="translate(864.08 603.089)">
      <path id="패스_15" data-name="패스 15" d="M4.5,9h8.84" transform="translate(0 -4.035)" fill="none" stroke="#fff" stroke-linecap="round" stroke-linejoin="round" stroke-width="1"/>
      <path id="패스_16" data-name="패스 16" d="M14.376,4.965V11.84a.982.982,0,0,1-.982.982H8.482A.982.982,0,0,1,7.5,11.84V4.965m1.473,0V3.982A.982.982,0,0,1,9.956,3H11.92a.982.982,0,0,1,.982.982v.982" transform="translate(-2.018)" fill="none" stroke="#fff" stroke-linecap="round" stroke-linejoin="round" stroke-width="1"/>
      <path id="패스_17" data-name="패스 17" d="M15,16.5v2.947" transform="translate(-7.062 -9.08)" fill="none" stroke="#fff" stroke-linecap="round" stroke-linejoin="round" stroke-width="1"/>
      <path id="패스_18" data-name="패스 18" d="M21,16.5v2.947" transform="translate(-11.097 -9.08)" fill="none" stroke="#fff" stroke-linecap="round" stroke-linejoin="round" stroke-width="1"/>
    </g>
  </g>
</svg>
