<?xml version="1.0" encoding="utf-8"?>
<!-- Generator: Adobe Illustrator 25.2.1, SVG Export Plug-In . SVG Version: 6.00 Build 0)  -->
<svg version="1.1" id="Layer_1" xmlns="http://www.w3.org/2000/svg" xmlns:xlink="http://www.w3.org/1999/xlink" x="0px" y="0px"
	 viewBox="0 0 40 40" style="enable-background:new 0 0 40 40;" xml:space="preserve">
<style type="text/css">
	.st0{fill:#FF0000;}
</style>
<g>
	<path class="st0" d="M17.3,17.7l7.1-4.1l-7.1-4.1V17.7 M33,7c0.2,0.6,0.3,1.5,0.4,2.6c0.1,1.1,0.1,2,0.1,2.8l0.1,1.1
		c0,3-0.2,5.2-0.6,6.6c-0.3,1.2-1.1,2-2.4,2.4c-0.6,0.2-1.8,0.3-3.6,0.4c-1.8,0.1-3.4,0.1-4.9,0.1L20,23.1c-5.7,0-9.3-0.2-10.7-0.6
		c-1.2-0.3-2-1.1-2.4-2.4c-0.2-0.6-0.3-1.5-0.4-2.6c-0.1-1.1-0.1-2-0.1-2.8l-0.1-1.1c0-3,0.2-5.2,0.6-6.6c0.3-1.2,1.1-2,2.4-2.4
		c0.6-0.2,1.8-0.3,3.6-0.4c1.8-0.1,3.4-0.1,4.9-0.1L20,4.1c5.7,0,9.3,0.2,10.7,0.6C31.9,5,32.7,5.8,33,7z"/>
	<g>
		<path d="M13.9,32.2h-2.4v3.7h-1.3v-3.7H7.7v3.7H6.4v-3.7H4v-1h9.8L13.9,32.2z M5.1,27.9c0-1.5,1.6-2.4,3.9-2.4
			c2.3,0,3.8,0.9,3.8,2.4c0,1.5-1.6,2.4-3.8,2.4C6.7,30.3,5.1,29.3,5.1,27.9z M6.4,27.9c0,0.9,1,1.4,2.6,1.4c1.5,0,2.6-0.5,2.6-1.4
			c0-0.9-1-1.4-2.6-1.4C7.4,26.5,6.4,27,6.4,27.9z"/>
		<path d="M24.9,32.6h-2.4v3.3h-1.2v-3.3h-2.5v3.3h-1.2v-3.3h-2.4v-1h9.8V32.6z M23.8,30.6h-7.5v-5h7.4v1h-6.2v1h5.9v0.9h-5.9v1.1
			h6.3V30.6z"/>
		<path d="M36,33.6v1h-9.8v-1H36z M28.5,25.8v1.9h5.1v-1.9h1.2v5.7h-7.6v-5.7H28.5z M28.5,30.6h5.1v-1.8h-5.1V30.6z"/>
	</g>
</g>
</svg>
